# xmcd CD database file
#
# Track frame offsets:
#	150
#	23463
#	44022
#	63161
#	77639
#	94593
#	115942
#	136430
#	160654
#	189913
#	213555
#
# Disc length: 3088 seconds
#
# Revision: 0
# Processed by: cddbd v1.5.2PL0 Copyright (c) Steve Scherf et al.
# Submitted via: Feurio! 1.68 - http://www.feurio.com
#
DISCID=880c0e0b
DTITLE=John Lee Hooker - I Feel Good
DYEAR=1900
DGENRE=Blues
TTITLE0=Baby Don't Do Me Wrong
TTITLE1=Baby Baby
TTITLE2=I Feel Good
TTITLE3=Going Home
TTITLE4=We Are Cooking
TTITLE5=Looking Back Over My Day
TTITLE6=Dazie Mae
TTITLE7=Stand Back
TTITLE8=Call It The Night
TTITLE9=Roll And Tumble
TTITLE10=Bottle Of Vine
EXTD=
EXTT0=
EXTT1=
EXTT2=
EXTT3=
EXTT4=
EXTT5=
EXTT6=
EXTT7=
EXTT8=
EXTT9=
EXTT10=
PLAYORDER=
